<svg version="1.1" width="104" height="51" viewBox="-1 -1 104 51" xmlns="http://www.w3.org/2000/svg" xmlns:xlink="http://www.w3.org/1999/xlink">
  <!-- Exported by Scratch - http://scratch.mit.edu/ -->
  <g id="ID0.8414447759278119" transform="matrix(1, 0, 0, -1, -20, 97.1)">
    <path id="ID0.8124151569791138" fill="#726658" d="M 71.460 47.320 C 79.156 47.320 86.130 50.093 91.180 54.573 C 96.230 59.054 99.356 65.241 99.356 72.069 C 99.356 78.897 96.230 85.084 91.180 89.565 C 86.130 94.045 79.156 96.818 71.460 96.818 C 63.764 96.818 56.790 94.045 51.740 89.565 C 46.690 85.084 43.564 78.897 43.564 72.069 C 43.564 65.241 46.690 59.054 51.740 54.573 C 56.790 50.093 63.764 47.320 71.460 47.320 Z "/>
    <path id="ID0.6280556344427168" fill="none" stroke="#FFFFFF" stroke-width="0.5" d="M 71.460 47.320 C 79.156 47.320 86.130 50.093 91.180 54.573 C 96.230 59.054 99.356 65.241 99.356 72.069 C 99.356 78.897 96.230 85.084 91.180 89.565 C 86.130 94.045 79.156 96.818 71.460 96.818 C 63.764 96.818 56.790 94.045 51.740 89.565 C 46.690 85.084 43.564 78.897 43.564 72.069 C 43.564 65.241 46.690 59.054 51.740 54.573 C 56.790 50.093 63.764 47.320 71.460 47.320 Z "/>
    <path id="ID0.8129564640112221" fill="none" stroke="#C2B59B" stroke-width="0.5" d="M 98.382 78.593 C 90.088 80.636 79.867 80.822 69.178 78.677 C 59.299 76.695 50.557 73.034 43.871 68.478 "/>
    <path id="ID0.02432523388415575" fill="none" stroke="#C2B59B" stroke-width="0.5" d="M 96.493 82.835 C 91.654 85.215 86.004 85.971 80.420 84.977 "/>
    <path id="ID0.04195768153294921" fill="none" stroke="#C2B59B" stroke-width="0.5" d="M 52.580 83.150 C 50.482 83.103 48.340 82.888 46.180 82.495 "/>
    <path id="ID0.06436496414244175" fill="none" stroke="#C2B59B" stroke-width="0.5" d="M 76.729 84.412 C 71.877 88.592 64.321 91.336 55.366 92.224 "/>
    <path id="ID0.7126409658230841" fill="none" stroke="#C2B59B" stroke-width="0.5" d="M 75.436 79.681 C 70.579 84.926 61.862 88.303 51.334 89.159 "/>
    <path id="ID0.7048057233914733" fill="none" stroke="#C2B59B" stroke-width="0.5" d="M 84.229 80.198 C 82.317 84.010 78.823 86.703 74.440 88.166 "/>
    <path id="ID0.5646156659349799" fill="none" stroke="#C2B59B" stroke-width="0.5" d="M 78.578 80.138 C 75.844 87.344 71.570 93.111 66.600 96.469 "/>
    <path id="ID0.5499018272385001" fill="none" stroke="#C2B59B" stroke-width="0.5" d="M 83.324 94.480 C 80.582 93.320 77.890 91.763 75.349 89.806 C 74.923 89.480 74.507 89.144 74.101 88.804 "/>
    <path id="ID0.8536807843483984" fill="none" stroke="#C2B59B" stroke-width="0.5" d="M 89.414 91.113 C 85.398 90.588 81.262 89.203 77.332 86.961 "/>
    <path id="ID0.02063738601282239" fill="none" stroke="#C2B59B" stroke-width="0.5" d="M 57.074 88.383 C 52.082 83.932 48.578 77.739 47.437 70.714 "/>
    <path id="ID0.5342561276629567" fill="none" stroke="#C2B59B" stroke-width="0.5" d="M 99.237 75.265 C 90.447 76.886 79.785 73.718 71.191 66.056 C 65.773 61.224 62.035 55.370 60.166 49.468 "/>
    <path id="ID0.3791760401800275" fill="none" stroke="#C2B59B" stroke-width="0.5" d="M 85.422 50.515 C 86.561 52.902 87.205 55.626 87.205 58.519 C 87.205 64.212 84.707 69.255 80.865 72.355 "/>
    <path id="ID0.31754722399637103" fill="none" stroke="#C2B59B" stroke-width="0.5" d="M 56.004 74.878 C 55.783 73.780 55.668 72.651 55.668 71.495 C 55.668 61.181 64.854 52.819 76.186 52.819 C 87.516 52.819 96.703 61.180 96.703 71.495 C 96.703 72.925 96.525 74.315 96.191 75.651 "/>
    <g id="ID0.980301721021533">
      <path id="ID0.6999676432460546" fill="#F9ED32" opacity="0.8" d="M 97.405 81.255 C 113.606 77.200 124.341 71.620 123.760 66.712 C 122.934 59.689 99.258 56.698 70.878 60.038 C 42.497 63.378 20.161 71.778 20.987 78.802 C 21.555 83.617 32.860 86.535 49.057 86.819 C 49.057 86.819 48.024 85.594 47.725 85.241 C 47.426 84.888 46.864 83.829 46.864 83.829 C 39.587 83.104 34.923 81.441 34.639 79.027 C 34.080 74.287 50.618 68.447 71.577 65.982 C 92.535 63.515 109.976 65.359 110.535 70.099 C 110.836 72.652 106.174 75.525 98.531 78.019 C 98.531 78.019 98.170 79.238 98.035 79.619 C 97.899 79.997 97.405 81.255 97.405 81.255 Z "/>
    </g>
    <g id="ID0.9370794878341258">
      <path id="ID0.7709121350198984" fill="none" stroke="#C2B59B" stroke-width="0.5" d="M 98.532 78.019 C 106.175 75.525 110.837 72.652 110.536 70.099 C 109.977 65.359 92.536 63.515 71.578 65.982 C 50.619 68.447 34.082 74.287 34.640 79.027 C 34.923 81.441 39.587 83.104 46.865 83.829 "/>
      <path id="ID0.40363785484805703" fill="none" stroke="#C2B59B" stroke-width="0.5" d="M 97.405 81.255 C 113.606 77.200 124.341 71.620 123.760 66.712 C 122.934 59.689 99.258 56.698 70.878 60.038 C 42.497 63.378 20.161 71.778 20.987 78.802 C 21.555 83.617 32.860 86.535 49.057 86.819 "/>
    </g>
  </g>
</svg>